<?xml version="1.0" standalone="no"?>
<!DOCTYPE svg PUBLIC "-//W3C//DTD SVG 20010904//EN"
 "http://www.w3.org/TR/2001/REC-SVG-20010904/DTD/svg10.dtd">
<svg version="1.0" xmlns="http://www.w3.org/2000/svg"
 width="260.000000pt" height="260.000000pt" viewBox="0 0 260.000000 260.000000"
 preserveAspectRatio="xMidYMid meet">
<metadata>
Created by potrace 1.14, written by Peter Selinger 2001-2017
</metadata>
<g transform="translate(0.000000,260.000000) scale(0.100000,-0.100000)"
fill="#000000" stroke="none">
<path d="M0 1749 c0 -564 3 -848 10 -844 5 3 10 2 10 -4 0 -6 11 -6 32 0 18 5
57 7 86 4 29 -2 64 0 78 5 18 7 32 5 56 -10 25 -15 36 -17 52 -8 28 15 73 12
91 -6 13 -13 19 -13 55 1 37 15 45 15 107 -3 75 -20 121 -25 129 -12 3 5 9 6
14 3 5 -3 19 -1 30 5 14 8 31 8 53 2 18 -6 44 -13 60 -16 30 -7 36 -30 10 -40
-10 -4 -20 -1 -26 10 -7 13 -11 14 -17 3 -7 -10 -11 -10 -24 0 -19 16 -46 8
-46 -14 0 -9 -4 -13 -10 -10 -6 3 -7 -1 -4 -9 4 -11 -6 -20 -35 -32 -39 -15
-58 -16 -54 -3 1 4 -7 5 -17 2 -12 -3 -20 0 -20 7 0 8 -8 10 -27 5 -16 -4 -38
-7 -51 -6 -13 0 -33 -4 -45 -11 -19 -10 -20 -9 -9 4 11 13 6 16 -35 22 -60 8
-50 8 -166 3 -53 -3 -95 -2 -92 3 3 5 -10 6 -30 3 -19 -3 -40 -1 -47 5 -7 6
-35 10 -63 9 l-50 -2 -3 -408 -2 -407 1300 0 1300 0 0 306 0 307 -42 -6 c-27
-4 -37 -2 -27 4 7 5 26 9 42 9 l27 0 0 84 c0 83 0 84 -27 92 -16 4 -31 8 -35
8 -3 1 -10 4 -14 8 -3 4 4 5 17 2 43 -10 52 -9 56 3 2 6 -4 13 -14 16 -17 4
-17 5 0 6 16 1 17 50 17 881 l0 880 -1300 0 -1300 0 0 -851z m1772 652 c119
-45 134 -180 39 -341 -39 -65 -155 -200 -172 -200 -16 0 -10 65 16 174 14 58
25 110 25 116 0 20 -43 9 -82 -21 -44 -35 -238 -250 -314 -349 -132 -170 -197
-318 -150 -336 8 -3 69 4 136 15 242 41 375 19 462 -77 171 -189 126 -573
-101 -880 -164 -222 -315 -316 -501 -316 -115 0 -175 32 -232 125 -23 37 -56
154 -63 225 -10 106 25 254 67 281 7 4 13 15 13 23 0 8 10 16 21 18 12 2 30
12 40 23 23 25 37 24 22 -2 -11 -18 -10 -23 10 -36 26 -18 28 -44 7 -103 -17
-49 -20 -162 -5 -191 17 -31 60 -23 139 26 172 106 302 246 359 389 64 158 78
267 39 311 -43 51 -115 46 -422 -26 -193 -46 -231 -46 -302 -3 -94 58 -117
160 -78 339 25 119 102 291 173 390 72 101 185 216 256 262 149 97 254 144
371 169 63 14 186 11 227 -5z m-678 -1526 c18 -14 13 -20 -15 -17 -3 1 -6 -5
-6 -13 0 -10 6 -11 25 -4 14 5 41 7 60 4 21 -3 41 0 50 7 12 10 16 10 19 1 3
-7 10 -13 18 -13 7 0 18 -7 25 -15 10 -12 16 -13 26 -4 10 8 14 8 14 1 0 -16
-39 -35 -56 -28 -8 3 -14 2 -14 -2 0 -13 -59 -10 -63 3 -3 7 -17 10 -37 7 -21
-3 -30 -9 -26 -18 3 -9 -2 -14 -14 -14 -11 0 -20 -4 -20 -10 0 -5 -7 -10 -16
-10 -10 0 -14 5 -10 15 3 8 9 22 12 30 3 8 1 15 -6 15 -7 0 -9 8 -5 19 7 22
-10 37 -21 20 -5 -8 -3 -9 6 -4 9 6 11 4 5 -5 -6 -10 -13 -8 -27 10 -19 23
-19 24 -1 31 29 12 56 10 77 -6z m1076 -35 c0 -5 -5 -10 -11 -10 -5 0 -7 5 -4
10 3 6 8 10 11 10 2 0 4 -4 4 -10z m105 -52 c5 14 7 14 15 2 8 -12 13 -13 30
-2 11 6 31 12 44 12 14 0 27 4 30 8 2 4 22 9 43 10 34 2 36 0 21 -12 -10 -7
-14 -17 -10 -21 4 -5 2 -5 -5 -2 -6 4 -19 -1 -29 -10 -12 -12 -13 -18 -4 -21
7 -3 16 2 21 9 7 11 9 10 9 -3 0 -10 -8 -19 -17 -19 -17 -1 -17 -2 0 -6 25 -6
15 -28 -12 -27 -14 0 -20 -4 -17 -13 6 -16 -6 -17 -21 -2 -6 6 -36 10 -67 10
-32 0 -54 4 -51 10 4 5 1 9 -4 9 -6 0 -11 -4 -11 -10 0 -5 -7 -10 -15 -10 -9
0 -15 9 -15 21 0 16 -4 19 -17 14 -10 -4 -34 -9 -54 -12 -28 -4 -35 -9 -32
-22 3 -12 -4 -17 -32 -18 -19 -2 -35 1 -35 6 0 4 -12 7 -27 5 -16 -2 -20 -1
-10 2 25 8 11 23 -16 17 -18 -4 -19 -3 -7 6 20 14 4 14 -22 0 -24 -13 -92 -3
-82 13 4 5 1 13 -5 17 -6 4 -9 15 -6 23 5 13 11 13 31 4 13 -6 24 -15 24 -21
0 -5 5 -3 10 5 8 12 10 12 10 1 0 -11 5 -10 20 4 11 10 17 22 14 26 -3 5 5 9
18 9 14 0 19 -3 11 -8 -7 -4 -9 -13 -5 -19 9 -13 50 -12 60 3 10 15 57 40 48
25 -10 -15 40 -13 84 3 32 12 37 11 57 -10 19 -20 22 -21 28 -6z m-1425 0 c0
-4 -12 -8 -27 -8 -19 0 -24 3 -15 8 17 11 42 11 42 0z m350 -27 c0 -11 -39
-21 -45 -11 -2 4 -2 10 2 14 10 9 43 7 43 -3z m-638 -31 c15 -5 59 -7 97 -6
52 2 68 0 61 -9 -6 -7 -39 -11 -87 -10 -127 3 -135 4 -127 17 5 8 3 8 -7 2 -8
-5 -27 -9 -44 -9 -18 0 -29 -5 -28 -12 2 -9 -4 -10 -20 -4 -13 5 -35 7 -50 4
-15 -3 -27 -1 -27 4 0 6 17 11 38 12 66 3 122 13 128 23 3 5 13 6 23 3 9 -4
28 -11 43 -15z m-419 -4 c38 -5 28 -17 -12 -14 -25 2 -46 9 -49 16 -3 9 3 11
20 7 13 -3 32 -7 41 -9z m139 -19 c-29 -7 -52 -7 -75 1 -28 9 -23 10 43 10 72
0 73 -1 32 -11z m272 -16 c2 -3 -24 -4 -57 -2 -48 3 -55 6 -32 10 33 7 83 2
89 -8z m1789 -8 c-7 -2 -19 -2 -25 0 -7 3 -2 5 12 5 14 0 19 -2 13 -5z m-286
-19 c-3 -3 -12 -4 -19 -1 -8 3 -5 6 6 6 11 1 17 -2 13 -5z m168 -4 c8 -13 -5
-13 -25 0 -13 8 -13 10 2 10 9 0 20 -4 23 -10z m118 3 c-7 -2 -19 -2 -25 0 -7
3 -2 5 12 5 14 0 19 -2 13 -5z m-1660 -10 c-7 -2 -19 -2 -25 0 -7 3 -2 5 12 5
14 0 19 -2 13 -5z m1728 -21 c-7 -2 -18 1 -23 6 -8 8 -4 9 13 5 13 -4 18 -8
10 -11z m-243 -23 l47 -2 -40 -6 c-44 -8 -80 4 -68 22 5 8 8 8 11 -1 2 -7 24
-13 50 -13z m25 14 c-13 -2 -33 -2 -45 0 -13 2 -3 4 22 4 25 0 35 -2 23 -4z
m-158 -13 c-3 -5 -13 -10 -21 -10 -8 0 -13 -4 -10 -9 8 -13 -80 -22 -106 -11
l-23 10 25 -1 c57 -3 91 2 85 10 -4 8 6 13 48 20 5 0 5 -3 2 -9z m300 0 c-40
-15 -115 -21 -115 -9 0 7 10 9 25 7 14 -3 25 -2 25 1 0 3 19 7 43 7 29 1 36 0
22 -6z m-395 -4 c0 -3 -4 -8 -10 -11 -5 -3 -10 -1 -10 4 0 6 5 11 10 11 6 0
10 -2 10 -4z m545 -7 c-4 -5 -21 -9 -38 -8 -24 0 -27 2 -14 8 28 11 58 11 52
0z m-390 -9 c17 -8 16 -8 -7 -7 -16 1 -28 5 -28 9 0 10 9 9 35 -2z m313 -17
c-43 -2 -113 -2 -155 0 -43 1 -8 3 77 3 85 0 120 -2 78 -3z m-275 -10 c-13 -2
-33 -2 -45 0 -13 2 -3 4 22 4 25 0 35 -2 23 -4z"/>
<path d="M480 835 c-11 -13 -10 -14 4 -9 9 3 16 10 16 15 0 13 -6 11 -20 -6z"/>
<path d="M340 820 c0 -5 7 -7 15 -4 8 4 15 8 15 10 0 2 -7 4 -15 4 -8 0 -15
-4 -15 -10z"/>
</g>
</svg>
